<?xml version="1.0" encoding="UTF-8" standalone="no"?>
<svg
   viewBox="0 0 512 512"
   version="1.1"
   id="svg2"
   sodipodi:docname="logo.svg"
   inkscape:version="1.3 (0e150ed6c4, 2023-07-21)"
   width="512"
   height="512"
   inkscape:export-filename="logo.png"
   inkscape:export-xdpi="96"
   inkscape:export-ydpi="96"
   xmlns:inkscape="http://www.inkscape.org/namespaces/inkscape"
   xmlns:sodipodi="http://sodipodi.sourceforge.net/DTD/sodipodi-0.dtd"
   xmlns="http://www.w3.org/2000/svg"
   xmlns:svg="http://www.w3.org/2000/svg">
  <defs
     id="defs2" />
  <sodipodi:namedview
     id="namedview2"
     pagecolor="#eeeeee"
     bordercolor="#666666"
     borderopacity="1.0"
     inkscape:showpageshadow="false"
     inkscape:pageopacity="0.0"
     inkscape:pagecheckerboard="0"
     inkscape:deskcolor="#d1d1d1"
     inkscape:zoom="1.640625"
     inkscape:cx="375.46667"
     inkscape:cy="271.2381"
     inkscape:window-width="2400"
     inkscape:window-height="1321"
     inkscape:window-x="4791"
     inkscape:window-y="-9"
     inkscape:window-maximized="1"
     inkscape:current-layer="county_bnd"
     showborder="false" />
  <!-- svg generated using QGIS www.qgis.org -->
  <g
     id="county_bnd"
     inkscape:groupmode="layer"
     inkscape:label="county_bnd">
    <g
       id="county_bnd_1"
       inkscape:label="15_0"
       style="fill:#ef3e3d;fill-opacity:1;stroke:none;stroke-width:2.35107;stroke-linejoin:round;stroke-dasharray:none;stroke-opacity:1"
       transform="matrix(0.85067598,0,0,0.85067598,-56.187824,-14.426381)">
      <path
         d="m 288,24 c 18.37143,1.904187 36.79423,4.600759 54.52202,6 13.47751,0.830176 26.69675,3.760006 40.47798,4 5.60066,2.110056 16.13579,1.426191 19,3 -0.70937,5.47621 -4.12912,13.134753 0,19 2.15353,4.179803 2.67458,9.992082 4,15 0.0844,3.365033 3.10231,10.410983 6,14 0.77324,14.188164 9.10914,27.18166 12.85738,40.93716 3.07822,8.92983 10.89339,20.58882 -4.33967,18.96871 -6.14027,8.72478 -1.88258,16.08921 7.48229,20.09413 8.62024,19.74551 28.0067,32.26606 43.2664,46.84427 8.58113,4.85883 16.70326,10.04344 16.76597,20.94826 4.17516,14.89681 7.39131,30.09774 11.15469,44.61653 2.53328,8.52372 5.01749,19.42972 6.81294,26.59094 0.34252,7.45506 9.23058,11.87795 16.10861,16.01384 C 554.02057,340.24161 585.36973,361.33765 617,382 c -6.00811,4.78584 -10.35102,9.74875 -17,16 -3.93896,3.22186 -10.52154,9.36642 -15,14 -5.3376,4.39038 -10.61697,10.36693 -16.84427,15.2664 C 561.29695,435.83432 552.57544,441.21755 546,449 c -5.47691,3.90196 -10.56742,10.42495 -16.36134,13.68067 C 524.05176,468.28871 521.52234,473.17664 516,477 c -6.95667,7.17609 -13.98695,12.26809 -21,20 -3.46935,2.5012 -9.26424,8.80001 -14.36134,12.68067 C 476.52569,515.49055 468.20656,520.55139 464,526 c -4.82801,3.94309 -9.34591,7.98192 -15,13 -7.18995,6.47875 -15.77738,14.54049 -22.5655,20.8524 -5.79861,4.808 -14.18409,13.78583 -19.4345,17.1476 -3.48759,2.80655 -11.6763,1.01191 -11,2 -0.80007,-0.86408 -5.64837,0.82571 -10,3 -5.22331,-0.14659 -8.471,2.69502 -11.52202,3 -4.16146,4.35053 -3.40919,5.42894 -9.47798,8 -1.30709,0.69049 -8.2915,3.35425 -8,5 -0.13091,3.03677 -5.54633,6.43418 -11,9 -4.70886,3.16389 -6.66968,9.51317 -11.56606,-1.08808 C 325.66555,593.7213 316.69015,578.54313 308,568 c -2.6024,-5.29083 -6.6216,-8.4731 -9,-14 -4.13861,-4.88731 -8.01644,-11.20453 -11.68067,-16.36134 C 280.46701,530.55099 275.32329,522.56831 270,514 c -5.2746,-4.17664 -8.41991,-14.12911 -14,-19 -4.10325,-8.71271 -12.35798,4.42907 -17,6 -7.53386,4.85422 -12.68468,10.54334 -20,14 -5.74879,4.17834 -11.88285,7.35184 -16,11 -8.91818,5.46322 -18.09606,11.62364 -27,18 -5.25538,3.35768 -12.54756,8.47514 -18,13 -6.05018,5.22502 -8.69034,4.22221 -11,-2 -1.79337,-4.53996 -5.28521,-7.38146 -8,-11 -5.57478,-2.09189 -1.98183,-13.35151 -3,-20 4.45913,-2.89845 -1.89651,-11.01408 3,-14 2.60978,-3.72356 2.32577,-10.3409 7,-12 2.69545,-3.63788 11.90246,-0.76421 13,-6 3.83476,-3.87475 0.58305,-11.43308 -1,-16 -1.12096,-5.21237 -3.07394,-9.59272 -7,-12 -5.17509,-1.10779 -9.79698,-3.66108 -7,-10 2.96737,-3.36596 2.52219,-10.14447 7,-12 7.77617,-0.55716 18.48624,1.81958 22,-3 1.65725,-6.05946 8.43576,-0.84754 12,-5 -0.62959,-6.96292 0.81652,-11.85015 4,-15 2.27106,-5.16887 1.76123,-10.58533 1,-17.52202 -1.55073,-6.5516 -2.42293,-15.20775 -2,-23.47798 3.89838,-5.64676 -3.03616,-8.90099 -4,-13 -2.22749,-4.45693 -5.30109,-7.96876 -2,-14 2.84895,-5.87437 1.21,-14.03605 3,-19 4.57528,-4.50825 -2.40925,-9.11637 -3,-14 -1.85179,-6.31494 -1.54657,-15.80636 1,-20 0.92903,-5.25309 5.99326,-7.25459 5,-15 1.76614,-4.56719 3.0589,-9.60776 5,-14 1.01227,-5.32106 3.76274,-8.90392 8,-11 1.19991,-5.2727 3.01516,-9.71792 6,-14 4.39431,-0.63297 8.1459,-7.15095 7,-10 -0.0821,-5.17104 -7.25986,-8.44713 -2,-13 3.86649,-2.46684 11.06138,-1.60529 10,-9 5.39646,-5.49863 8.1804,9.07549 12,2 4.04219,-4.07587 10.45351,-2.65626 17,-2 2.31684,-4.01649 4.93915,-7.72752 11,-8 3.72137,3.06673 12.21049,-4.18275 4,-5 -4.20934,-3.14824 -8.80509,-0.31248 -14,-3 -4.1837,-2.13458 -10.72124,-2.26953 -13,-7 0.48163,-7.05046 -7.51908,-6.40012 -10,-3 0.64389,5.3877 -2.74663,6.91401 -7,11 -5.3664,-0.96693 -9.72476,-2.94191 -10,-9 -3.36602,-3.07267 -4.19046,-10.90033 1,-12 4.02516,1.19765 9.4435,-2.99097 14,-6 3.35254,-2.9808 9.42002,-3.24664 13,-6 0.72972,-6.69517 0.0214,-12.11454 -3,-16 -1.40718,-7.74052 2.01031,-10.65635 3,-16 2.59756,-7.62483 -5.49566,-9.8012 -2,-15 2.04289,-6.1375 5.05024,-12.3453 8,-16 3.08868,-3.920549 8.85738,-4.824338 7,-13 -2.15082,-4.182512 -7.31879,-5.347875 -8,-11 0.85468,-5.980201 2.34477,-9.85363 5,-15 -0.0759,-5.878984 -0.89229,-10.992356 8.65112,-15.42394 C 268.43408,39.050707 278.21704,31.525353 288,24 Z"
         id="path1"
         style="fill:#ef3e3d;fill-opacity:1;stroke:none;stroke-width:2.35107;stroke-dasharray:none;stroke-opacity:1" />
    </g>
  </g>
  <!-- QGIS extent for clipping, eg in Inkscape -->
  <g
     id="qgisviewbox"
     inkscape:groupmode="layer"
     inkscape:label="qgisviewbox"
     stroke="#ff0000"
     stroke-width="1"
     fill="none" />
</svg>
